<svg xmlns="http://www.w3.org/2000/svg" width="425" height="253" viewBox="0 0 425 253" version="1.1"><path d="M 125.985 23.250 C 125.976 24.488, 125.552 26.160, 125.042 26.966 L 124.114 28.433 125.243 29.793 L 126.371 31.152 125.275 31.830 C 124.672 32.202, 123.923 35.384, 123.610 38.900 C 122.924 46.618, 123.025 46.495, 119.165 44.281 L 116.060 42.500 110.902 45.266 L 105.743 48.032 104.427 46.939 C 102.491 45.333, 98.703 46.200, 97.525 48.519 C 96.961 49.629, 95.439 51.590, 94.142 52.876 L 91.784 55.216 80.392 58.240 C 74.126 59.903, 69 61.632, 69 62.084 C 69 62.535, 71.138 62.246, 73.750 61.442 C 88.049 57.039, 104.217 53.592, 116.029 52.428 L 123.325 51.710 122.694 53.355 L 122.063 55 127.531 55 L 133 55 133 53 L 133 51 135.800 51 C 139.072 51, 140.952 52.573, 141.118 55.450 L 141.237 57.500 141.878 54.500 C 142.632 50.977, 145.352 50.459, 145.820 53.750 C 145.995 54.987, 146.745 56, 147.486 56 C 148.227 56, 148.989 56.467, 149.179 57.037 C 149.604 58.311, 172.183 59.563, 177.326 58.599 L 181 57.909 181 55.838 L 181 53.767 183.250 54.370 C 184.488 54.701, 185.838 54.979, 186.250 54.986 C 186.662 54.994, 187 55.675, 187 56.500 C 187 57.325, 187.450 58, 188 58 C 188.550 58, 189 57.492, 189 56.871 L 189 55.742 194.250 56.416 C 197.137 56.787, 200.017 57.769, 200.649 58.598 C 201.297 59.449, 201.951 59.657, 202.149 59.075 L 202.500 58.044 208 59.510 C 211.025 60.317, 214.443 60.982, 215.596 60.988 C 216.749 60.995, 218.999 61.629, 220.596 62.398 C 222.193 63.167, 224.569 64.115, 225.875 64.505 L 228.250 65.214 227.595 64.154 C 227.207 63.526, 228.483 62.680, 230.720 62.081 C 240.378 59.496, 252.416 56.890, 260.569 55.619 C 265.481 54.854, 268.319 54.176, 266.875 54.114 C 262.834 53.939, 241.123 57.825, 231.778 60.396 L 223.413 62.697 220.957 61.723 L 218.500 60.748 226.500 58.450 C 236.701 55.520, 235.167 55.372, 223.188 58.131 L 213.875 60.275 212.871 59.271 L 211.866 58.266 224.699 55.075 C 231.757 53.320, 241.125 51.246, 245.516 50.466 L 253.500 49.048 247.351 49.562 L 241.202 50.077 237.461 47.538 C 232.804 44.378, 231.940 44.382, 226.865 47.585 L 222.770 50.170 221.685 49.085 C 219.763 47.163, 216.994 47.919, 215.729 50.712 C 212.913 56.929, 209.649 58.816, 204.229 57.364 L 201.958 56.756 203.062 55.426 C 203.669 54.694, 203.874 53.062, 203.517 51.798 L 202.869 49.500 204.016 51 L 205.164 52.500 204.591 47 C 204.275 43.975, 203.934 40.150, 203.832 38.500 C 203.730 36.850, 203.340 38.650, 202.965 42.500 L 202.282 49.500 202.391 39.334 C 202.491 29.965, 201.916 26.750, 200.410 28.257 C 200.085 28.582, 199.336 33.828, 198.745 39.915 L 197.671 50.982 198.814 53.491 C 199.443 54.871, 199.764 56, 199.528 56 C 199.292 56, 196.916 55.532, 194.249 54.960 L 189.400 53.920 189.400 50.475 C 189.400 48.425, 189.718 47.530, 190.185 48.265 L 190.969 49.500 190.985 47.691 C 190.993 46.696, 191.377 46.115, 191.837 46.399 C 192.297 46.684, 193.605 46.265, 194.743 45.468 L 196.811 44.019 196.607 40.038 L 196.402 36.057 194.155 33.665 L 191.908 31.273 187.829 31.273 L 183.750 31.273 182.175 34.017 L 180.600 36.762 178.755 34.415 L 176.909 32.069 166.705 31.784 L 156.500 31.500 156.826 28.162 L 157.151 24.825 155.421 22.912 C 153.343 20.617, 149.291 20.426, 146.983 22.516 L 145.308 24.031 145.789 36.516 L 146.270 49 145.166 49 C 144.559 49, 144.329 48.306, 144.655 47.458 C 145.974 44.019, 142.224 23.443, 140.577 25.090 C 139.738 25.929, 138.042 38.967, 138.020 44.750 L 138 50 135.559 50 C 132.374 50, 131.275 46.357, 130.657 33.750 C 130.610 32.788, 130.282 32, 129.929 32 C 129.576 32, 129.237 30.538, 129.175 28.750 C 128.936 21.832, 128.745 21, 127.394 21 C 126.620 21, 125.993 22, 125.985 23.250 M 147.070 36.143 L 147.139 44.500 148.660 39.544 C 149.496 36.819, 150.884 34.074, 151.743 33.446 C 152.602 32.818, 153.009 31.824, 152.647 31.237 C 152.284 30.651, 152.553 29.943, 153.244 29.664 C 153.935 29.386, 153.524 29.122, 152.332 29.079 C 151.139 29.036, 149.452 28.727, 148.582 28.393 L 147 27.786 147.070 36.143 M 347.561 32.250 C 347.191 33.487, 346.691 39.133, 346.450 44.795 L 346.012 55.089 347.615 57.534 L 349.217 59.980 347.858 60.447 C 347.111 60.704, 345.150 61.091, 343.500 61.307 C 341.850 61.523, 344.325 61.692, 349 61.682 C 353.675 61.672, 355.813 61.487, 353.750 61.272 C 349.428 60.819, 349.472 60.949, 351.669 55.198 L 353.337 50.828 352.157 41.967 C 350.547 29.869, 349.153 26.923, 347.561 32.250 M 173.688 36.353 C 171.707 39.377, 171.631 39.947, 171.842 50.333 L 172 58.167 173.250 57.726 C 173.938 57.483, 174.393 56.433, 174.263 55.392 C 173.929 52.726, 174.877 49, 175.889 49 C 176.358 49, 176.707 50.657, 176.666 52.682 C 176.625 54.724, 177.128 56.543, 177.796 56.765 L 179 57.167 179 51.208 C 179 47.931, 179.267 43.917, 179.592 42.288 L 180.185 39.326 177.788 36.540 L 175.391 33.754 173.688 36.353 M 330.544 40.292 C 328.613 43.240, 329.303 48.939, 331.837 50.961 C 336.747 54.879, 336.895 60.032, 332.025 57.513 L 329.164 56.033 325.832 57.426 C 323.999 58.192, 321.333 58.595, 319.908 58.323 C 318.311 58.017, 316.707 58.436, 315.729 59.414 C 314.857 60.286, 313.661 61, 313.071 61 C 312.482 61, 312.113 61.337, 312.250 61.750 C 312.387 62.163, 312.080 62.616, 311.567 62.759 C 310.116 63.161, 310.175 56.870, 311.627 56.313 L 312.911 55.820 310.443 51.910 L 307.975 48 309.737 47.900 L 311.500 47.801 309 47 C 307.625 46.560, 302.986 46.155, 298.691 46.100 L 290.882 46 291.500 45 C 291.840 44.450, 291.165 44, 290 44 C 288.835 44, 288.160 44.450, 288.500 45 C 288.859 45.581, 287.868 46, 286.130 46 C 284.487 46, 282.357 46.788, 281.396 47.750 L 279.649 49.500 273.075 50.093 L 266.500 50.685 272.917 50.843 C 279.962 51.015, 280.319 51.986, 273.731 53.060 L 269.500 53.750 273.750 53.875 C 278.496 54.015, 279.507 55.639, 275.250 56.284 L 272.500 56.700 275.250 56.850 L 278 57 278 59.863 L 278 62.726 270.500 63.935 C 266.375 64.601, 263 65.394, 263 65.698 C 263 66.001, 264.350 65.980, 266 65.650 C 269.979 64.854, 269.790 65.531, 265.458 67.587 L 261.916 69.268 259.708 68.202 L 257.500 67.135 259.917 67.068 C 261.246 67.030, 262.055 66.721, 261.714 66.381 C 261.043 65.710, 247.453 68.737, 245 70.103 C 242.699 71.386, 245.172 71.153, 250.321 69.604 L 254.959 68.208 253.982 70.034 C 253.444 71.039, 251.991 72.055, 250.752 72.294 L 248.500 72.728 250.750 72.864 C 253.533 73.032, 253.534 73.230, 250.778 76.325 L 248.556 78.820 246.028 77.086 C 242.185 74.449, 235.108 70.596, 237.959 72.692 C 239.311 73.686, 241.705 75.579, 243.279 76.898 L 246.140 79.296 244.820 80.132 C 242.325 81.715, 240.369 80.990, 235.179 76.560 C 226.015 68.738, 223.260 67.397, 230.750 74.405 C 238.415 81.576, 238.948 82.422, 236.408 83.397 L 234.816 84.008 225.158 75.242 C 210.968 62.363, 209.531 61.419, 219.423 71.477 C 224.278 76.414, 228.947 81.515, 229.797 82.812 L 231.342 85.171 229.921 86.070 C 227.204 87.790, 225.481 86.921, 222.296 82.224 C 220.533 79.626, 216.097 74.350, 212.438 70.500 C 205.665 63.373, 205.540 63.910, 212.090 72 C 214.094 74.475, 217.429 79.161, 219.502 82.414 L 223.271 88.328 221.445 89.664 C 218.401 91.890, 217.563 91.271, 214.111 84.250 C 211.037 77.996, 205.021 68.969, 199.950 63 C 197.409 60.008, 198.459 62.280, 201.569 66.500 C 205.291 71.551, 213.997 90.269, 213.999 93.224 C 214 93.623, 212.642 94.651, 210.982 95.509 L 207.964 97.070 207.577 95.785 C 207.364 95.078, 206.032 90.641, 204.617 85.924 C 201.815 76.585, 198.067 67.651, 195.628 64.500 C 194.777 63.400, 195.431 66.014, 197.082 70.308 C 198.747 74.639, 200.784 82.865, 201.656 88.781 L 203.229 99.446 199.864 102.258 L 196.500 105.070 195.295 93.102 C 193.942 79.665, 191.796 70.310, 188.862 65.048 C 187.773 63.097, 187.173 62.400, 187.527 63.500 C 187.882 64.600, 188.856 68.650, 189.692 72.500 L 191.212 79.500 190.656 94.750 L 190.099 110 194.209 110 L 198.319 110 206.934 104.099 C 236.400 83.918, 288.245 67.069, 332.313 63.355 C 336.610 62.992, 339.632 62.390, 339.027 62.017 C 338.423 61.644, 337.730 60.240, 337.486 58.897 L 337.044 56.457 339.388 53.728 C 340.678 52.228, 342.195 51, 342.759 51 C 345.290 51, 345.103 42.877, 342.506 40.007 L 340.690 38 336.368 38 L 332.046 38 330.544 40.292 M 156.500 41 L 155.882 42 163 42 L 170.118 42 169.500 41 C 169.160 40.450, 166.235 40, 163 40 C 159.765 40, 156.840 40.450, 156.500 41 M 125.550 42.250 C 125.337 42.938, 124.963 44.737, 124.720 46.250 L 124.277 49 127.658 49 L 131.038 49 130.436 46.250 C 129.400 41.526, 129.106 41, 127.500 41 C 126.640 41, 125.763 41.563, 125.550 42.250 M 181.189 48.182 L 181.500 52.500 184.215 52.813 L 186.929 53.126 186.715 50.160 C 186.597 48.529, 186.162 47.403, 185.750 47.656 C 185.338 47.910, 185 47.657, 185 47.094 C 185 46.531, 184.073 45.574, 182.939 44.967 L 180.878 43.865 181.189 48.182 M 286.685 51.250 L 288.567 54.500 288.187 59.749 C 287.978 62.637, 287.400 64.748, 286.904 64.440 C 285.494 63.569, 285.842 64.985, 287.428 66.571 L 288.856 67.999 292.678 67.100 C 294.780 66.605, 295.825 66.092, 295 65.959 C 294.175 65.825, 295.300 65.394, 297.500 65 L 301.500 64.284 297.417 64.142 L 293.333 64 293.333 62.500 L 293.333 61 300.917 60.801 L 308.500 60.603 301.250 60.257 C 297.262 60.068, 294 59.558, 294 59.124 C 294 58.690, 296.198 58.526, 298.884 58.760 C 301.790 59.013, 304.041 58.743, 304.443 58.093 C 304.814 57.492, 305.991 57, 307.059 57 C 313.891 57, 307.859 53.066, 300.668 52.832 L 295.500 52.664 301.500 52 L 307.500 51.336 302.750 51.168 C 298.252 51.009, 296.516 49.766, 299.250 48.662 C 299.938 48.385, 298.336 48.122, 295.691 48.079 C 292.722 48.030, 291.118 48.383, 291.500 49 C 291.840 49.550, 291.443 50, 290.618 50 C 289.793 50, 288.840 49.550, 288.500 49 C 288.160 48.450, 287.189 48, 286.342 48 L 284.802 48 286.685 51.250 M 256 51.547 C 255.175 51.720, 250.084 52.614, 244.687 53.535 C 239.290 54.455, 235.069 55.403, 235.308 55.641 C 235.547 55.880, 241.087 55.176, 247.621 54.077 C 254.154 52.978, 260.850 51.904, 262.500 51.689 L 265.500 51.300 261.500 51.266 C 259.300 51.247, 256.825 51.374, 256 51.547 M 80.528 62.616 C 70.537 65.049, 68.461 65.991, 69.138 67.789 C 69.337 68.319, 74.900 66.808, 81.500 64.431 C 95.093 59.537, 94.872 59.124, 80.528 62.616 M 97.500 61.955 C 94.750 62.973, 87.213 65.742, 80.750 68.109 L 69 72.413 69 74.635 L 69 76.856 83.250 70.140 C 91.088 66.446, 99.075 62.683, 101 61.776 C 105.702 59.562, 103.688 59.664, 97.500 61.955 M 96.500 68.338 C 87.700 72.898, 77.912 78.105, 74.750 79.910 L 69 83.191 69 86.154 L 69 89.118 70.250 88.378 C 70.938 87.970, 76.821 84.087, 83.325 79.749 C 89.829 75.410, 99.482 69.191, 104.778 65.930 C 118.005 57.783, 115.419 58.535, 96.500 68.338 M 239.112 62.747 L 228.724 65.377 230.612 66.040 C 231.650 66.405, 233.175 66.290, 234 65.786 C 234.825 65.282, 239.550 63.814, 244.500 62.525 C 249.450 61.236, 252.600 60.167, 251.500 60.149 C 250.400 60.131, 244.825 61.300, 239.112 62.747 M 111.500 68.148 C 100.918 74.910, 88.501 83.785, 77.750 92.271 L 69 99.177 69 102.589 C 69 106.689, 69.866 106.854, 73.076 103.363 C 77.007 99.088, 98.108 80.724, 109.215 71.911 C 123.361 60.688, 123.479 60.493, 111.500 68.148 M 125.737 77.762 C 117.632 85.881, 111 93.081, 111 93.762 C 111 94.443, 110.438 95.014, 109.750 95.031 C 109.063 95.048, 105.125 98.419, 101 102.522 L 93.500 109.983 96.593 109.992 L 99.687 110 104.093 104.773 C 106.517 101.898, 113.229 94.585, 119.009 88.523 C 130.365 76.612, 142.018 63, 140.860 63 C 140.648 63, 133.843 69.643, 125.737 77.762 M 179.580 65.500 C 179.981 66.600, 180.499 72, 180.731 77.500 L 181.152 87.500 178.225 98.750 L 175.297 110 178.518 110 L 181.738 110 182.869 101.182 C 184.767 86.385, 183.509 70.751, 179.978 65.257 L 178.849 63.500 179.580 65.500 M 121.500 69.719 C 98.336 87.574, 75.555 110, 80.580 110 L 83.159 110 105.445 87.500 C 117.703 75.125, 127.679 65.021, 127.616 65.047 C 127.552 65.073, 124.800 67.176, 121.500 69.719 M 146.211 70.356 C 141.151 77.401, 136.545 82.713, 123.321 96.750 L 110.838 110 114.169 109.993 L 117.500 109.986 124.828 101.645 C 134.411 90.737, 142.695 79.593, 146.818 72.061 C 150.734 64.907, 150.532 64.339, 146.211 70.356 M 326 67.003 C 323.525 67.432, 317.450 68.339, 312.500 69.020 C 279.195 73.599, 238.827 88.093, 214 104.385 L 205.500 109.963 209.841 109.982 L 214.182 110 224.341 103.632 C 252.528 85.964, 286.550 74.258, 328 67.966 C 334.779 66.937, 337.653 66.221, 335 66.222 C 332.525 66.223, 328.475 66.574, 326 67.003 M 163.700 71.870 C 162.777 78.063, 156.023 92.093, 148.842 102.735 L 143.939 110 147.393 110 L 150.847 110 155.846 99.750 C 161.970 87.194, 165.231 76.689, 164.813 70.863 L 164.500 66.500 163.700 71.870 M 155.694 72.425 C 152.895 79.194, 144.736 90.980, 135.990 100.890 L 127.949 110 131.338 110 L 134.727 110 141.346 100.750 C 148.272 91.072, 154.900 79.170, 156.977 72.683 C 158.671 67.394, 157.844 67.228, 155.694 72.425 M 172.118 74.324 L 172 81.147 169.496 88.606 C 168.119 92.709, 165.413 99.201, 163.483 103.033 L 159.975 110 163.361 110 L 166.748 110 169.427 101.750 C 170.901 97.213, 172.601 89.892, 173.204 85.483 L 174.302 77.467 173.269 72.483 L 172.236 67.500 172.118 74.324 M 332.500 69.706 C 294.904 74.801, 246.763 92.177, 227.461 107.621 L 224.500 109.990 228.909 109.995 L 233.317 110 242.736 103.899 C 264.008 90.118, 299.221 77.263, 332.915 70.977 C 341.268 69.418, 340.986 68.556, 332.500 69.706 M 323 75.643 C 298.792 80.841, 274.111 90.550, 253.576 102.954 C 243.268 109.180, 242.631 110, 248.100 110 L 252.317 110 261.782 103.869 C 280.164 91.961, 307.897 80.464, 331.191 75.096 C 335.761 74.042, 338.375 73.179, 337 73.177 C 335.625 73.175, 329.325 74.285, 323 75.643 M 339.500 76.665 C 308.161 83.451, 287.299 92.224, 268.106 106.689 L 263.712 110 268.015 110 L 272.318 110 277.409 106.164 C 294.786 93.070, 320.849 81.772, 345.500 76.648 C 346.653 76.408, 346.230 76.232, 344.500 76.232 C 342.850 76.232, 340.600 76.427, 339.500 76.665 M 337.500 81.444 C 320.345 85.915, 301.866 94.398, 287.867 104.230 L 280.549 109.369 283.477 110.152 L 286.405 110.935 298.237 102.963 C 315.005 91.665, 328.387 85.351, 344.926 80.936 C 348.542 79.970, 350.375 79.162, 349 79.139 C 347.625 79.117, 342.450 80.154, 337.500 81.444 M 346.500 83.991 C 331.342 87.932, 319.509 93.392, 304.929 103.174 L 295.500 109.500 299.500 110.047 C 304.400 110.717, 305.114 110.382, 315.877 102.391 C 326.426 94.558, 339.535 87.641, 349.798 84.494 C 358.862 81.714, 356.590 81.368, 346.500 83.991 M 349.333 87.870 C 338.253 91.727, 326.311 98.852, 316.500 107.461 L 312.500 110.970 316.539 110.985 L 320.577 111 327.443 104.905 C 336.641 96.740, 346.502 90.303, 354.181 87.451 C 363.175 84.111, 359.127 84.460, 349.333 87.870 M 354.587 91.479 C 345.487 95.452, 337.669 100.421, 331.339 106.255 L 326.917 110.331 328.209 111.150 C 330.822 112.808, 333.569 111.913, 336.273 108.524 C 340.129 103.692, 351.466 94.759, 357.750 91.603 C 360.637 90.153, 363 88.749, 363 88.483 C 363 87.788, 363.225 87.708, 354.587 91.479 M 353.475 98.557 C 345.115 103.591, 337.916 109.248, 338.321 110.465 C 339.206 113.124, 342.447 111.742, 348.258 106.227 C 351.691 102.970, 356.292 99.111, 358.482 97.652 C 364.413 93.702, 360.305 94.445, 353.475 98.557 M 188.824 139.809 L 186.148 140.119 184.675 144.309 C 183.865 146.614, 177.081 165.356, 169.601 185.958 C 162.120 206.560, 156 223.562, 156 223.740 C 156 223.918, 161.223 223.937, 167.607 223.782 L 179.215 223.500 181.398 216.500 L 183.581 209.500 198.500 209.500 L 213.419 209.500 215.602 216.500 L 217.785 223.500 229.512 223.783 L 241.239 224.066 240.532 222.283 C 240.144 221.302, 233.329 202.526, 225.387 180.558 C 208.538 133.947, 211.452 137.194, 188.824 139.809 M 17 171.304 L 17 202.607 19.578 207.780 C 22.697 214.041, 26.420 217.330, 35 221.410 L 41.500 224.500 52.500 224.479 L 63.500 224.459 69.500 222.105 L 75.500 219.751 81.026 214.126 L 86.552 208.500 87.776 204.384 L 89 200.268 89 170.134 L 89 140 78.500 140 L 68 140 67.994 166.250 C 67.988 194.760, 67.521 198.169, 63.028 202.473 L 60.044 205.332 54.355 205.804 L 48.667 206.275 45.583 204.584 C 43.888 203.654, 41.600 201.680, 40.500 200.197 L 38.500 197.500 38.207 168.750 L 37.913 140 27.457 140 L 17 140 17 171.304 M 105 182 L 105 224 115.932 224 L 126.863 224 126.278 207.500 L 125.693 191 139.347 191 L 153 191 153 182.029 L 153 173.058 139.750 172.779 L 126.500 172.500 126.500 165.500 L 126.500 158.500 141.750 158.224 L 157 157.948 157 148.974 L 157 140 131 140 L 105 140 105 182 M 246 182 L 246 224 257 224 L 268 224 268 208.434 L 268 192.867 270.655 193.184 L 273.310 193.500 282.905 208.727 L 292.500 223.954 304.835 223.977 L 317.170 224 313.739 219.250 C 300.937 201.530, 293.845 190.706, 294.671 190.149 C 295.200 189.792, 297.230 188.488, 299.182 187.251 C 314.764 177.381, 312.613 150.316, 295.617 142.402 L 290.500 140.020 268.250 140.010 L 246 140 246 182 M 324 181.968 L 324 224 334.500 224 L 345 224 345.016 201.250 L 345.032 178.500 355.432 201 L 365.831 223.500 371.711 223.792 L 377.591 224.085 387.399 202.792 C 392.793 191.082, 397.610 181.072, 398.103 180.550 C 398.634 179.988, 399 188.663, 399 201.800 L 399 224 409.500 224 L 420 224 420 182 L 420 140 408.250 140.029 L 396.500 140.058 384.500 166.100 C 377.900 180.424, 372.275 192.292, 372 192.474 C 371.725 192.656, 366.058 181.037, 359.407 166.653 L 347.315 140.500 335.657 140.218 L 324 139.937 324 181.968 M 268 167 L 268 176 274.435 176 C 284.979 176, 288.936 173.544, 288.936 167 C 288.936 160.456, 284.979 158, 274.435 158 L 268 158 268 167 M 195.423 171.750 C 193.938 176.563, 191.928 183.088, 190.954 186.250 L 189.183 192 198.699 192 L 208.214 192 207.633 190.487 C 207.314 189.655, 205.210 183.130, 202.958 175.987 C 198.096 160.564, 198.758 160.936, 195.423 171.750" stroke="none" fill="#2f5f4f" fill-rule="evenodd"/><path d="M 0 126.502 L 0 253.005 212.750 252.752 L 425.500 252.500 425.754 126.250 L 426.008 0 213.004 0 L 0 0 0 126.502 M 0.485 127 C 0.485 196.575, 0.604 225.037, 0.750 190.250 C 0.896 155.462, 0.896 98.537, 0.750 63.750 C 0.604 28.962, 0.485 57.425, 0.485 127 M 125.985 23.250 C 125.976 24.488, 125.552 26.160, 125.042 26.966 L 124.114 28.433 125.243 29.793 L 126.371 31.152 125.275 31.830 C 124.672 32.202, 123.923 35.384, 123.610 38.900 C 122.924 46.618, 123.025 46.495, 119.165 44.281 L 116.060 42.500 110.902 45.266 L 105.743 48.032 104.427 46.939 C 102.491 45.333, 98.703 46.200, 97.525 48.519 C 96.961 49.629, 95.439 51.590, 94.142 52.876 L 91.784 55.216 80.392 58.240 C 74.126 59.903, 69 61.632, 69 62.084 C 69 62.535, 71.138 62.246, 73.750 61.442 C 88.049 57.039, 104.217 53.592, 116.029 52.428 L 123.325 51.710 122.694 53.355 L 122.063 55 127.531 55 L 133 55 133 53 L 133 51 135.800 51 C 139.072 51, 140.952 52.573, 141.118 55.450 L 141.237 57.500 141.878 54.500 C 142.632 50.977, 145.352 50.459, 145.820 53.750 C 145.995 54.987, 146.745 56, 147.486 56 C 148.227 56, 148.989 56.467, 149.179 57.037 C 149.604 58.311, 172.183 59.563, 177.326 58.599 L 181 57.909 181 55.838 L 181 53.767 183.250 54.370 C 184.488 54.701, 185.838 54.979, 186.250 54.986 C 186.662 54.994, 187 55.675, 187 56.500 C 187 57.325, 187.450 58, 188 58 C 188.550 58, 189 57.492, 189 56.871 L 189 55.742 194.250 56.416 C 197.137 56.787, 200.017 57.769, 200.649 58.598 C 201.297 59.449, 201.951 59.657, 202.149 59.075 L 202.500 58.044 208 59.510 C 211.025 60.317, 214.443 60.982, 215.596 60.988 C 216.749 60.995, 218.999 61.629, 220.596 62.398 C 222.193 63.167, 224.569 64.115, 225.875 64.505 L 228.250 65.214 227.595 64.154 C 227.207 63.526, 228.483 62.680, 230.720 62.081 C 240.378 59.496, 252.416 56.890, 260.569 55.619 C 265.481 54.854, 268.319 54.176, 266.875 54.114 C 262.834 53.939, 241.123 57.825, 231.778 60.396 L 223.413 62.697 220.957 61.723 L 218.500 60.748 226.500 58.450 C 236.701 55.520, 235.167 55.372, 223.188 58.131 L 213.875 60.275 212.871 59.271 L 211.866 58.266 224.699 55.075 C 231.757 53.320, 241.125 51.246, 245.516 50.466 L 253.500 49.048 247.351 49.562 L 241.202 50.077 237.461 47.538 C 232.804 44.378, 231.940 44.382, 226.865 47.585 L 222.770 50.170 221.685 49.085 C 219.763 47.163, 216.994 47.919, 215.729 50.712 C 212.913 56.929, 209.649 58.816, 204.229 57.364 L 201.958 56.756 203.062 55.426 C 203.669 54.694, 203.874 53.062, 203.517 51.798 L 202.869 49.500 204.016 51 L 205.164 52.500 204.591 47 C 204.275 43.975, 203.934 40.150, 203.832 38.500 C 203.730 36.850, 203.340 38.650, 202.965 42.500 L 202.282 49.500 202.391 39.334 C 202.491 29.965, 201.916 26.750, 200.410 28.257 C 200.085 28.582, 199.336 33.828, 198.745 39.915 L 197.671 50.982 198.814 53.491 C 199.443 54.871, 199.764 56, 199.528 56 C 199.292 56, 196.916 55.532, 194.249 54.960 L 189.400 53.920 189.400 50.475 C 189.400 48.425, 189.718 47.530, 190.185 48.265 L 190.969 49.500 190.985 47.691 C 190.993 46.696, 191.377 46.115, 191.837 46.399 C 192.297 46.684, 193.605 46.265, 194.743 45.468 L 196.811 44.019 196.607 40.038 L 196.402 36.057 194.155 33.665 L 191.908 31.273 187.829 31.273 L 183.750 31.273 182.175 34.017 L 180.600 36.762 178.755 34.415 L 176.909 32.069 166.705 31.784 L 156.500 31.500 156.826 28.162 L 157.151 24.825 155.421 22.912 C 153.343 20.617, 149.291 20.426, 146.983 22.516 L 145.308 24.031 145.789 36.516 L 146.270 49 145.166 49 C 144.559 49, 144.329 48.306, 144.655 47.458 C 145.974 44.019, 142.224 23.443, 140.577 25.090 C 139.738 25.929, 138.042 38.967, 138.020 44.750 L 138 50 135.559 50 C 132.374 50, 131.275 46.357, 130.657 33.750 C 130.610 32.788, 130.282 32, 129.929 32 C 129.576 32, 129.237 30.538, 129.175 28.750 C 128.936 21.832, 128.745 21, 127.394 21 C 126.620 21, 125.993 22, 125.985 23.250 M 147.070 36.143 L 147.139 44.500 148.660 39.544 C 149.496 36.819, 150.884 34.074, 151.743 33.446 C 152.602 32.818, 153.009 31.824, 152.647 31.237 C 152.284 30.651, 152.553 29.943, 153.244 29.664 C 153.935 29.386, 153.524 29.122, 152.332 29.079 C 151.139 29.036, 149.452 28.727, 148.582 28.393 L 147 27.786 147.070 36.143 M 347.561 32.250 C 347.191 33.487, 346.691 39.133, 346.450 44.795 L 346.012 55.089 347.615 57.534 L 349.217 59.980 347.858 60.447 C 347.111 60.704, 345.150 61.091, 343.500 61.307 C 341.850 61.523, 344.325 61.692, 349 61.682 C 353.675 61.672, 355.813 61.487, 353.750 61.272 C 349.428 60.819, 349.472 60.949, 351.669 55.198 L 353.337 50.828 352.157 41.967 C 350.547 29.869, 349.153 26.923, 347.561 32.250 M 173.688 36.353 C 171.707 39.377, 171.631 39.947, 171.842 50.333 L 172 58.167 173.250 57.726 C 173.938 57.483, 174.393 56.433, 174.263 55.392 C 173.929 52.726, 174.877 49, 175.889 49 C 176.358 49, 176.707 50.657, 176.666 52.682 C 176.625 54.724, 177.128 56.543, 177.796 56.765 L 179 57.167 179 51.208 C 179 47.931, 179.267 43.917, 179.592 42.288 L 180.185 39.326 177.788 36.540 L 175.391 33.754 173.688 36.353 M 330.544 40.292 C 328.613 43.240, 329.303 48.939, 331.837 50.961 C 336.747 54.879, 336.895 60.032, 332.025 57.513 L 329.164 56.033 325.832 57.426 C 323.999 58.192, 321.333 58.595, 319.908 58.323 C 318.311 58.017, 316.707 58.436, 315.729 59.414 C 314.857 60.286, 313.661 61, 313.071 61 C 312.482 61, 312.113 61.337, 312.250 61.750 C 312.387 62.163, 312.080 62.616, 311.567 62.759 C 310.116 63.161, 310.175 56.870, 311.627 56.313 L 312.911 55.820 310.443 51.910 L 307.975 48 309.737 47.900 L 311.500 47.801 309 47 C 307.625 46.560, 302.986 46.155, 298.691 46.100 L 290.882 46 291.500 45 C 291.840 44.450, 291.165 44, 290 44 C 288.835 44, 288.160 44.450, 288.500 45 C 288.859 45.581, 287.868 46, 286.130 46 C 284.487 46, 282.357 46.788, 281.396 47.750 L 279.649 49.500 273.075 50.093 L 266.500 50.685 272.917 50.843 C 279.962 51.015, 280.319 51.986, 273.731 53.060 L 269.500 53.750 273.750 53.875 C 278.496 54.015, 279.507 55.639, 275.250 56.284 L 272.500 56.700 275.250 56.850 L 278 57 278 59.863 L 278 62.726 270.500 63.935 C 266.375 64.601, 263 65.394, 263 65.698 C 263 66.001, 264.350 65.980, 266 65.650 C 269.979 64.854, 269.790 65.531, 265.458 67.587 L 261.916 69.268 259.708 68.202 L 257.500 67.135 259.917 67.068 C 261.246 67.030, 262.055 66.721, 261.714 66.381 C 261.043 65.710, 247.453 68.737, 245 70.103 C 242.699 71.386, 245.172 71.153, 250.321 69.604 L 254.959 68.208 253.982 70.034 C 253.444 71.039, 251.991 72.055, 250.752 72.294 L 248.500 72.728 250.750 72.864 C 253.533 73.032, 253.534 73.230, 250.778 76.325 L 248.556 78.820 246.028 77.086 C 242.185 74.449, 235.108 70.596, 237.959 72.692 C 239.311 73.686, 241.705 75.579, 243.279 76.898 L 246.140 79.296 244.820 80.132 C 242.325 81.715, 240.369 80.990, 235.179 76.560 C 226.015 68.738, 223.260 67.397, 230.750 74.405 C 238.415 81.576, 238.948 82.422, 236.408 83.397 L 234.816 84.008 225.158 75.242 C 210.968 62.363, 209.531 61.419, 219.423 71.477 C 224.278 76.414, 228.947 81.515, 229.797 82.812 L 231.342 85.171 229.921 86.070 C 227.204 87.790, 225.481 86.921, 222.296 82.224 C 220.533 79.626, 216.097 74.350, 212.438 70.500 C 205.665 63.373, 205.540 63.910, 212.090 72 C 214.094 74.475, 217.429 79.161, 219.502 82.414 L 223.271 88.328 221.445 89.664 C 218.401 91.890, 217.563 91.271, 214.111 84.250 C 211.037 77.996, 205.021 68.969, 199.950 63 C 197.409 60.008, 198.459 62.280, 201.569 66.500 C 205.291 71.551, 213.997 90.269, 213.999 93.224 C 214 93.623, 212.642 94.651, 210.982 95.509 L 207.964 97.070 207.577 95.785 C 207.364 95.078, 206.032 90.641, 204.617 85.924 C 201.815 76.585, 198.067 67.651, 195.628 64.500 C 194.777 63.400, 195.431 66.014, 197.082 70.308 C 198.747 74.639, 200.784 82.865, 201.656 88.781 L 203.229 99.446 199.864 102.258 L 196.500 105.070 195.295 93.102 C 193.942 79.665, 191.796 70.310, 188.862 65.048 C 187.773 63.097, 187.173 62.400, 187.527 63.500 C 187.882 64.600, 188.856 68.650, 189.692 72.500 L 191.212 79.500 190.656 94.750 L 190.099 110 194.209 110 L 198.319 110 206.934 104.099 C 236.400 83.918, 288.245 67.069, 332.313 63.355 C 336.610 62.992, 339.632 62.390, 339.027 62.017 C 338.423 61.644, 337.730 60.240, 337.486 58.897 L 337.044 56.457 339.388 53.728 C 340.678 52.228, 342.195 51, 342.759 51 C 345.290 51, 345.103 42.877, 342.506 40.007 L 340.690 38 336.368 38 L 332.046 38 330.544 40.292 M 156.500 41 L 155.882 42 163 42 L 170.118 42 169.500 41 C 169.160 40.450, 166.235 40, 163 40 C 159.765 40, 156.840 40.450, 156.500 41 M 125.550 42.250 C 125.337 42.938, 124.963 44.737, 124.720 46.250 L 124.277 49 127.658 49 L 131.038 49 130.436 46.250 C 129.400 41.526, 129.106 41, 127.500 41 C 126.640 41, 125.763 41.563, 125.550 42.250 M 181.189 48.182 L 181.500 52.500 184.215 52.813 L 186.929 53.126 186.715 50.160 C 186.597 48.529, 186.162 47.403, 185.750 47.656 C 185.338 47.910, 185 47.657, 185 47.094 C 185 46.531, 184.073 45.574, 182.939 44.967 L 180.878 43.865 181.189 48.182 M 286.685 51.250 L 288.567 54.500 288.187 59.749 C 287.978 62.637, 287.400 64.748, 286.904 64.440 C 285.494 63.569, 285.842 64.985, 287.428 66.571 L 288.856 67.999 292.678 67.100 C 294.780 66.605, 295.825 66.092, 295 65.959 C 294.175 65.825, 295.300 65.394, 297.500 65 L 301.500 64.284 297.417 64.142 L 293.333 64 293.333 62.500 L 293.333 61 300.917 60.801 L 308.500 60.603 301.250 60.257 C 297.262 60.068, 294 59.558, 294 59.124 C 294 58.690, 296.198 58.526, 298.884 58.760 C 301.790 59.013, 304.041 58.743, 304.443 58.093 C 304.814 57.492, 305.991 57, 307.059 57 C 313.891 57, 307.859 53.066, 300.668 52.832 L 295.500 52.664 301.500 52 L 307.500 51.336 302.750 51.168 C 298.252 51.009, 296.516 49.766, 299.250 48.662 C 299.938 48.385, 298.336 48.122, 295.691 48.079 C 292.722 48.030, 291.118 48.383, 291.500 49 C 291.840 49.550, 291.443 50, 290.618 50 C 289.793 50, 288.840 49.550, 288.500 49 C 288.160 48.450, 287.189 48, 286.342 48 L 284.802 48 286.685 51.250 M 256 51.547 C 255.175 51.720, 250.084 52.614, 244.687 53.535 C 239.290 54.455, 235.069 55.403, 235.308 55.641 C 235.547 55.880, 241.087 55.176, 247.621 54.077 C 254.154 52.978, 260.850 51.904, 262.500 51.689 L 265.500 51.300 261.500 51.266 C 259.300 51.247, 256.825 51.374, 256 51.547 M 80.528 62.616 C 70.537 65.049, 68.461 65.991, 69.138 67.789 C 69.337 68.319, 74.900 66.808, 81.500 64.431 C 95.093 59.537, 94.872 59.124, 80.528 62.616 M 97.500 61.955 C 94.750 62.973, 87.213 65.742, 80.750 68.109 L 69 72.413 69 74.635 L 69 76.856 83.250 70.140 C 91.088 66.446, 99.075 62.683, 101 61.776 C 105.702 59.562, 103.688 59.664, 97.500 61.955 M 96.500 68.338 C 87.700 72.898, 77.912 78.105, 74.750 79.910 L 69 83.191 69 86.154 L 69 89.118 70.250 88.378 C 70.938 87.970, 76.821 84.087, 83.325 79.749 C 89.829 75.410, 99.482 69.191, 104.778 65.930 C 118.005 57.783, 115.419 58.535, 96.500 68.338 M 239.112 62.747 L 228.724 65.377 230.612 66.040 C 231.650 66.405, 233.175 66.290, 234 65.786 C 234.825 65.282, 239.550 63.814, 244.500 62.525 C 249.450 61.236, 252.600 60.167, 251.500 60.149 C 250.400 60.131, 244.825 61.300, 239.112 62.747 M 111.500 68.148 C 100.918 74.910, 88.501 83.785, 77.750 92.271 L 69 99.177 69 102.589 C 69 106.689, 69.866 106.854, 73.076 103.363 C 77.007 99.088, 98.108 80.724, 109.215 71.911 C 123.361 60.688, 123.479 60.493, 111.500 68.148 M 125.737 77.762 C 117.632 85.881, 111 93.081, 111 93.762 C 111 94.443, 110.438 95.014, 109.750 95.031 C 109.063 95.048, 105.125 98.419, 101 102.522 L 93.500 109.983 96.593 109.992 L 99.687 110 104.093 104.773 C 106.517 101.898, 113.229 94.585, 119.009 88.523 C 130.365 76.612, 142.018 63, 140.860 63 C 140.648 63, 133.843 69.643, 125.737 77.762 M 179.580 65.500 C 179.981 66.600, 180.499 72, 180.731 77.500 L 181.152 87.500 178.225 98.750 L 175.297 110 178.518 110 L 181.738 110 182.869 101.182 C 184.767 86.385, 183.509 70.751, 179.978 65.257 L 178.849 63.500 179.580 65.500 M 121.500 69.719 C 98.336 87.574, 75.555 110, 80.580 110 L 83.159 110 105.445 87.500 C 117.703 75.125, 127.679 65.021, 127.616 65.047 C 127.552 65.073, 124.800 67.176, 121.500 69.719 M 146.211 70.356 C 141.151 77.401, 136.545 82.713, 123.321 96.750 L 110.838 110 114.169 109.993 L 117.500 109.986 124.828 101.645 C 134.411 90.737, 142.695 79.593, 146.818 72.061 C 150.734 64.907, 150.532 64.339, 146.211 70.356 M 326 67.003 C 323.525 67.432, 317.450 68.339, 312.500 69.020 C 279.195 73.599, 238.827 88.093, 214 104.385 L 205.500 109.963 209.841 109.982 L 214.182 110 224.341 103.632 C 252.528 85.964, 286.550 74.258, 328 67.966 C 334.779 66.937, 337.653 66.221, 335 66.222 C 332.525 66.223, 328.475 66.574, 326 67.003 M 163.700 71.870 C 162.777 78.063, 156.023 92.093, 148.842 102.735 L 143.939 110 147.393 110 L 150.847 110 155.846 99.750 C 161.970 87.194, 165.231 76.689, 164.813 70.863 L 164.500 66.500 163.700 71.870 M 155.694 72.425 C 152.895 79.194, 144.736 90.980, 135.990 100.890 L 127.949 110 131.338 110 L 134.727 110 141.346 100.750 C 148.272 91.072, 154.900 79.170, 156.977 72.683 C 158.671 67.394, 157.844 67.228, 155.694 72.425 M 172.118 74.324 L 172 81.147 169.496 88.606 C 168.119 92.709, 165.413 99.201, 163.483 103.033 L 159.975 110 163.361 110 L 166.748 110 169.427 101.750 C 170.901 97.213, 172.601 89.892, 173.204 85.483 L 174.302 77.467 173.269 72.483 L 172.236 67.500 172.118 74.324 M 332.500 69.706 C 294.904 74.801, 246.763 92.177, 227.461 107.621 L 224.500 109.990 228.909 109.995 L 233.317 110 242.736 103.899 C 264.008 90.118, 299.221 77.263, 332.915 70.977 C 341.268 69.418, 340.986 68.556, 332.500 69.706 M 323 75.643 C 298.792 80.841, 274.111 90.550, 253.576 102.954 C 243.268 109.180, 242.631 110, 248.100 110 L 252.317 110 261.782 103.869 C 280.164 91.961, 307.897 80.464, 331.191 75.096 C 335.761 74.042, 338.375 73.179, 337 73.177 C 335.625 73.175, 329.325 74.285, 323 75.643 M 339.500 76.665 C 308.161 83.451, 287.299 92.224, 268.106 106.689 L 263.712 110 268.015 110 L 272.318 110 277.409 106.164 C 294.786 93.070, 320.849 81.772, 345.500 76.648 C 346.653 76.408, 346.230 76.232, 344.500 76.232 C 342.850 76.232, 340.600 76.427, 339.500 76.665 M 337.500 81.444 C 320.345 85.915, 301.866 94.398, 287.867 104.230 L 280.549 109.369 283.477 110.152 L 286.405 110.935 298.237 102.963 C 315.005 91.665, 328.387 85.351, 344.926 80.936 C 348.542 79.970, 350.375 79.162, 349 79.139 C 347.625 79.117, 342.450 80.154, 337.500 81.444 M 346.500 83.991 C 331.342 87.932, 319.509 93.392, 304.929 103.174 L 295.500 109.500 299.500 110.047 C 304.400 110.717, 305.114 110.382, 315.877 102.391 C 326.426 94.558, 339.535 87.641, 349.798 84.494 C 358.862 81.714, 356.590 81.368, 346.500 83.991 M 349.333 87.870 C 338.253 91.727, 326.311 98.852, 316.500 107.461 L 312.500 110.970 316.539 110.985 L 320.577 111 327.443 104.905 C 336.641 96.740, 346.502 90.303, 354.181 87.451 C 363.175 84.111, 359.127 84.460, 349.333 87.870 M 354.587 91.479 C 345.487 95.452, 337.669 100.421, 331.339 106.255 L 326.917 110.331 328.209 111.150 C 330.822 112.808, 333.569 111.913, 336.273 108.524 C 340.129 103.692, 351.466 94.759, 357.750 91.603 C 360.637 90.153, 363 88.749, 363 88.483 C 363 87.788, 363.225 87.708, 354.587 91.479 M 353.475 98.557 C 345.115 103.591, 337.916 109.248, 338.321 110.465 C 339.206 113.124, 342.447 111.742, 348.258 106.227 C 351.691 102.970, 356.292 99.111, 358.482 97.652 C 364.413 93.702, 360.305 94.445, 353.475 98.557 M 188.824 139.809 L 186.148 140.119 184.675 144.309 C 183.865 146.614, 177.081 165.356, 169.601 185.958 C 162.120 206.560, 156 223.562, 156 223.740 C 156 223.918, 161.223 223.937, 167.607 223.782 L 179.215 223.500 181.398 216.500 L 183.581 209.500 198.500 209.500 L 213.419 209.500 215.602 216.500 L 217.785 223.500 229.512 223.783 L 241.239 224.066 240.532 222.283 C 240.144 221.302, 233.329 202.526, 225.387 180.558 C 208.538 133.947, 211.452 137.194, 188.824 139.809 M 17 171.304 L 17 202.607 19.578 207.780 C 22.697 214.041, 26.420 217.330, 35 221.410 L 41.500 224.500 52.500 224.479 L 63.500 224.459 69.500 222.105 L 75.500 219.751 81.026 214.126 L 86.552 208.500 87.776 204.384 L 89 200.268 89 170.134 L 89 140 78.500 140 L 68 140 67.994 166.250 C 67.988 194.760, 67.521 198.169, 63.028 202.473 L 60.044 205.332 54.355 205.804 L 48.667 206.275 45.583 204.584 C 43.888 203.654, 41.600 201.680, 40.500 200.197 L 38.500 197.500 38.207 168.750 L 37.913 140 27.457 140 L 17 140 17 171.304 M 105 182 L 105 224 115.932 224 L 126.863 224 126.278 207.500 L 125.693 191 139.347 191 L 153 191 153 182.029 L 153 173.058 139.750 172.779 L 126.500 172.500 126.500 165.500 L 126.500 158.500 141.750 158.224 L 157 157.948 157 148.974 L 157 140 131 140 L 105 140 105 182 M 246 182 L 246 224 257 224 L 268 224 268 208.434 L 268 192.867 270.655 193.184 L 273.310 193.500 282.905 208.727 L 292.500 223.954 304.835 223.977 L 317.170 224 313.739 219.250 C 300.937 201.530, 293.845 190.706, 294.671 190.149 C 295.200 189.792, 297.230 188.488, 299.182 187.251 C 314.764 177.381, 312.613 150.316, 295.617 142.402 L 290.500 140.020 268.250 140.010 L 246 140 246 182 M 324 181.968 L 324 224 334.500 224 L 345 224 345.016 201.250 L 345.032 178.500 355.432 201 L 365.831 223.500 371.711 223.792 L 377.591 224.085 387.399 202.792 C 392.793 191.082, 397.610 181.072, 398.103 180.550 C 398.634 179.988, 399 188.663, 399 201.800 L 399 224 409.500 224 L 420 224 420 182 L 420 140 408.250 140.029 L 396.500 140.058 384.500 166.100 C 377.900 180.424, 372.275 192.292, 372 192.474 C 371.725 192.656, 366.058 181.037, 359.407 166.653 L 347.315 140.500 335.657 140.218 L 324 139.937 324 181.968 M 268 167 L 268 176 274.435 176 C 284.979 176, 288.936 173.544, 288.936 167 C 288.936 160.456, 284.979 158, 274.435 158 L 268 158 268 167 M 195.423 171.750 C 193.938 176.563, 191.928 183.088, 190.954 186.250 L 189.183 192 198.699 192 L 208.214 192 207.633 190.487 C 207.314 189.655, 205.210 183.130, 202.958 175.987 C 198.096 160.564, 198.758 160.936, 195.423 171.750" stroke="none" fill="#d8e1e0" fill-rule="evenodd"/></svg>